<svg id="svg" viewBox="0 0 541 541" xmlns="http://www.w3.org/2000/svg" xmlns:xlink="http://www.w3.org/1999/xlink" version="1.1" width="507.1875" height="507.1875" preserveAspectRatio="xMidYMid meet" buffered-rendering="static" style="background: rgb(199, 127, 18);"><g><path d="M 296 80.50275990383929 C 290.225 80.28842242390925 283.475 80.55818737817415 281 81.10223757998355 C 278.525 81.64628778179294 269.75 82.24179347320184 261.5 82.42558356089224 C 251.47237179485595 82.64897491448619 244.51105128205762 83.3138799191329 240.5 84.43138189641064 C 237.2 85.35078089325538 231.35 87.61888424358104 227.5 89.47161156380102 C 223.65 91.32433888402099 217.4625 95.12616018589212 213.75 97.92010334573685 L 207 103 L 200.25 103.00976891570399 C 195.29728956436549 103.01693670988946 192.1686743967663 103.63932765467109 188.5 105.347254739119 C 185.60567081637947 106.69469053455798 181.39432918362053 109.98012033677148 178.5 113.14863987647519 C 175.75 116.15915740278002 172.2625 121.18228878224328 170.75 124.31115405306018 C 169.2375 127.44001932387708 167.775 130 167.5 130 C 167.225 130 165.2 129.1 163 128 C 160.8 126.9 155.7375 125.09938161941467 151.75 123.9986258209215 C 147.7625 122.89787002242834 141.125 121.71350424907955 137 121.36670188014645 C 131.6957514579074 120.92075619292034 127.01148168103828 121.23684687686678 121 122.44636876186976 C 116.325 123.38698791575071 109.35 125.46574941892084 105.5 127.06583876891449 C 101.65 128.66592811890814 95.93299623595044 132.11819640271796 92.79554719100099 134.73754606626966 C 89.65809814605154 137.35689572982136 85.32741634750735 141.75 83.17180986090281 144.5 C 81.01620337429827 147.25 78.3082187126104 151.3 77.15406616826311 153.5 C 75.99991362391583 155.7 75.26863728064895 157.725 75.52900762767004 158 C 75.78937797469113 158.275 79.26436640042856 155.31083793016813 83.25120412930875 151.41297317815142 C 87.23804185818894 147.5151084261347 93.425 142.17906282740628 97 139.55509406986607 C 100.575 136.93112531232586 105.975 133.53338329621977 109 132.004556256297 C 112.025 130.47572921637425 116.75 128.54691212095983 119.5 127.71829604426499 C 122.25 126.88967996757015 127.65 125.89710287519976 131.5 125.5125691723308 C 135.4642355431341 125.11662575091623 141.96944509356103 125.2970273259064 146.5 125.92854710568957 C 150.9 126.54186867190587 157.2 127.88313358333022 160.5 128.9091357977437 C 163.8 129.93513801215715 166.455 131.1628106362885 166.4 131.63729718470228 C 166.345 132.11178373311603 166.23250000000002 133.0625 166.15 133.75 C 166.04055815319816 134.66201539001537 164.5804646380645 134.43902656852288 160.75 132.92529964787957 C 157.8625 131.78421445421336 152.4625 130.20921445421337 148.75 129.42529964787957 C 145.0375 128.6413848415458 138.7375 128.0066514890132 134.75 128.014781086696 C 130.7625 128.0229106843788 124.6875 128.6979106843788 121.25 129.514781086696 C 117.8125 130.33165148901318 111.7375 132.64728335596695 107.75 134.66062967992653 C 103.7625 136.6739760038861 98.29101629161843 140.38647600388612 95.59114731470763 142.91062967992653 C 92.89127833779682 145.43478335596694 88.83075613494465 149.975 86.5677646417028 153 C 84.30477314846094 156.025 81.04914448648363 161.875 79.33303428175321 166 C 77.6169240770228 170.125 75.93994627987497 174.9625 75.60641695475805 176.75 C 75.27288762964112 178.5375 75.3375 180.01296457076964 75.75 180.0288101572659 C 76.1625 180.04465574376215 77.10035185335482 178.80715574376214 77.83411522967738 177.2788101572659 C 78.56787860599994 175.75046457076965 81.5485078400333 170.9 84.45773574975152 166.5 C 87.36696365946975 162.1 93.13022683298152 154.9 97.26498724644438 150.5 C 101.39974765990723 146.1 107.41911842587386 140.93200458747876 110.64136672637024 139.01556574995277 C 113.86361502686661 137.09912691242678 119.425 134.73532662477703 123 133.76267622184218 C 127.43170535847358 132.55694195537848 132.8410913440042 132.02110564900045 140 132.07871112251445 C 146.11142831722822 132.1278878530718 153.4257144551812 132.86737120623027 157.5 133.8479827146011 C 162.9228075176758 135.1531606165955 164.59034631791084 135.97969945602367 164.900981004198 137.5163820639761 C 165.22958395899192 139.14195212374332 164.95883029991705 139.34920008264254 163.400981004198 138.66455468484122 C 162.3554414518891 138.20505976150392 158.125 136.96254261746762 154 135.9034054758717 C 149.875 134.8442683342758 143.2375 133.98271872609723 139.25 133.98885079103047 C 135.2625 133.9949828559637 128.9625 134.67278516561794 125.25 135.49507814581762 C 121.3674514714689 136.35503569471882 115.8532793476299 138.58527572808353 112.26960182892078 140.74507814581762 C 108.84288283482721 142.81028516561793 104.11788283482721 146.1002457616809 101.76960182892078 148.05610169262422 C 99.42132082301436 150.01195762356755 95.40979319418523 154.73695762356755 92.85509598707827 158.55610169262422 C 90.30039877997132 162.3752457616809 87.07680875911973 168.2 85.69156260740807 171.5 C 84.30631645569642 174.8 82.4300650569935 181.325 81.52211505473494 186 C 80.61416505247638 190.675 80.12525507332796 194.6125 80.43564843440514 194.75 C 80.74604179548231 194.8875 83.61576869367069 189.4875 86.81281931926819 182.75 C 90.00986994486568 176.0125 94.84736994486569 167.14300876373352 97.56281931926819 163.0400194749634 C 100.27826869367068 158.93703018619325 104.5718160911119 153.53703018619325 107.10403575802646 151.0400194749634 C 109.63625542494101 148.54300876373352 114.361255424941 145.06561931956546 117.60403575802646 143.31248737681213 C 120.8468160911119 141.5593554340588 126.2 139.41959373980964 129.5 138.55746138959177 C 132.8 137.69532903937392 138.65 136.99537130003125 142.5 137.00199974660808 C 146.35 137.00862819318493 152.2 137.48314122522464 155.5 138.05647315114078 C 158.8 138.6298050770569 162.175 139.5077428654753 163 140.00744601429278 C 164.00108999658926 140.61380701252955 164.16739333105951 141.25035598526188 163.5 141.92126504492143 C 162.83009761047694 142.59469638039056 160.5194143371383 142.40964558663302 156.5 141.3606708816066 C 152.43840028482907 140.300686763077 147.59239957275642 139.92062562633637 141.5 140.18425399893727 C 133.88142733130346 140.51392244733842 131.4255565200973 141.08000467601474 125.5 143.87228010254688 C 121.65 145.68649963714887 116.925 148.5599264313857 115 150.25767297862876 C 113.075 151.9554195258718 109.7 155.6441478174334 107.5 158.45484695987676 C 105.3 161.26554610232014 102.29642115321462 166.25053700371106 100.82538034047695 169.53260451852327 C 99.35433952773928 172.81467203333548 97.44183952773928 178.9875 96.57538034047695 183.25 C 95.70892115321463 187.5125 95 194.375 95 198.5 C 95 202.625 95.3375 206.00641175866258 95.75 206.01424835258354 C 96.1625 206.0220849465045 97.34726823732747 202.53458494650448 98.38281830517215 198.26424835258354 C 99.41836837301683 193.9939117586626 101.82089708816967 186 103.7217710055118 180.5 C 105.62264492285392 175 108.47796628070758 168.025 110.06692957851993 165 C 111.65589287633229 161.975 115.10336416117944 157.33438730551862 117.72797687818029 154.68752734559695 C 120.35258959518113 152.04066738567528 125.2 148.56817977314785 128.5 146.9708882066471 C 131.8 145.37359664014636 137.425 143.5623119622459 141 142.9458111446461 C 145.83550992864474 142.11193818673797 149.42056546694837 142.11872674545705 155 142.9723211445755 C 159.125 143.60340246213647 162.61331897799317 144.2052998345183 162.75181995109597 144.30987086097957 C 162.89032092419876 144.4144418874408 162.33507668933876 147.425 161.51794387362935 151 C 160.7008110579199 154.575 159.76479446964566 162.225 159.4379070107977 168 C 159.11101955194968 173.775 159.26552391269678 182.1 159.78125003468008 186.5 L 160.71893389283156 194.5 L 157.9847286845484 200 C 156.48091581999267 203.025 154.74415569410556 207.8625 154.12526173813262 210.75 C 153.50636778215969 213.6375 153 217.575 153 219.5 C 153 221.425 153.6988715611385 224.6875 154.5530479136411 226.75 C 155.40722426614371 228.8125 157.155968020407 231.625 158.43914514533728 233 C 160.09842759365762 234.77801904516062 160.96541758537984 237.23275429161453 161.4412672439565 241.5 C 161.80925727326678 244.8 162.84700020079364 249.75 163.74736263846057 252.5 C 164.64772507612753 255.25 167.3228985706104 259.8625 169.69219262620027 262.75 C 172.06148668179011 265.6375 173.99040417265394 268.5625 173.97867593923098 269.25 C 173.966947705808 269.9375 174.866947705808 273.5375 175.97867593923098 277.25 C 177.34259506613338 281.8046650758655 179.40608124888797 285.7074827187713 182.32328039136698 289.25 C 186.15557920740338 293.90377374652064 186.6683310891472 295.12461797983553 186.8382566498692 300 C 186.9436893767936 303.025 187.68077558080415 307.75 188.47622599211488 310.5 C 189.2716764034256 313.25 191.1774370870996 317.36406277182357 192.71124973361265 319.6423617151635 C 194.2450623801257 321.9206606585034 198.3680289398375 327.5456606585034 201.87339764408335 332.1423617151635 C 205.44044123906662 336.8199390103427 211.5424651561395 343.14193845024437 215.73145837939353 346.5 C 219.8480230795683 349.8 224.47805746102867 354.3 226.02042367152768 356.5 C 228.387148595806 359.8758486136231 228.99558564192796 362.13839738923934 229.9197151537037 371 C 230.52195925840144 376.775 231.01783723486955 386.675 231.02166621252172 393 L 231.02862799007113 404.5 L 228.16193099601747 409 C 226.58524764928796 411.475 222.41630635152197 416.28703977589083 218.8976170009819 419.69342172420187 C 215.37892765044185 423.0998036725129 210.7 427.31586733743984 208.5 429.06245209070624 C 206.3 430.80903684397265 200 435.26542242988245 194.5 438.9655311705058 C 189 442.6656399111292 180.45 448.1895807448548 175.5 451.2409552454516 C 170.55 454.2923297460484 158.85 461.1598868686941 149.5 466.50219329577544 C 140.15 471.8444997228567 128.93287776994447 478.7544952242041 124.57306171098769 481.85773885432525 C 120.21324565203092 484.9609824844464 112.77863000463392 491.325 108.05169360566103 496 C 103.32475720668813 500.675 97.19575684152238 507.875 94.43169279418157 512 C 91.66762874684076 516.125 87.96737232733186 522.425 86.20890075082846 526 C 84.45042917432507 529.575 82.10403462551008 536.1 80.99469064235072 540.5 C 79.78491974659559 545.2983240745245 78.9884152533242 551.7016759254755 79.00447173997229 556.5 C 79.0191953268235 560.9 79.69059281007027 567.2 80.4964661471873 570.5 C 81.30233948430434 573.8 82.08281005728053 576.5746846307973 82.2308451982455 576.6659658462162 C 82.37888033921048 576.7572470616351 82.5184907177341 571.1322470616351 82.54109048385354 564.1659658462162 C 82.57128302216168 554.8592450885682 83.06619867024426 549.9086905984014 84.40715995187314 545.5 C 85.41089839316447 542.2 87.69687879785269 536.35 89.48711640673585 532.5 C 91.27735401561901 528.65 94.99351578738474 522.35 97.74525367732637 518.5 C 100.49699156726801 514.65 105.6175204448457 508.39496653432474 109.12420673861013 504.5999256318328 C 112.63089303237456 500.8048847293408 119.775 494.2719603539108 125 490.082315908655 C 130.225 485.8926714633992 136.3 481.3722759424416 138.5 480.03699252874924 C 140.7 478.7017091150569 145.65 476.7711136789514 149.5 475.74678044851487 C 153.79011031797384 474.6053512119073 161.72621581533616 473.66698774559933 170 473.3228647047401 C 180.38034206681922 472.89112575706315 185.57977195545385 473.1526679751667 192.5 474.4546618504605 C 197.45 475.3859707092464 206.225 478.0036150573297 212 480.2716492906456 C 218.2436325270836 482.7237310762162 226.55368330753942 487.0756734642095 232.5 491.0074223094681 C 238 494.6440632365045 245.65 500.24015860737876 249.5 503.4431898002997 C 253.35 506.6462209932207 262.972689508202 515.6193342307118 270.8837544626711 523.3834414391689 C 278.7948194171402 531.147548647626 284.9437484468832 536.6 284.5480411954333 535.5 C 284.1523339439834 534.4 281.5046444357814 530.1250544251385 278.6642867327622 526.0001209447523 C 275.823929029743 521.8751874643661 268.1 513.0490731479433 261.5 506.3865335749239 C 254.9 499.72399400190443 246.575 492.3268724588679 243 489.94848570150936 C 239.425 487.5700989441508 232.3375 483.4587132605736 227.25 480.8120730713378 C 222.1625 478.16543288210204 214.0625 474.6725727096718 209.25 473.05016157704836 C 204.4375 471.42775044442493 196.225 469.5745650488258 191 468.9319718090502 C 185.61536579559288 468.26974606007093 177.60123240417516 468.0389522838724 172.5 468.39920243135987 C 167.55 468.74877251340575 161.7 469.28785581958886 159.5 469.59716533398887 L 155.5 470.15954626926174 L 159 467.9217130694009 C 160.925 466.69090480947744 169.025 461.50695350341755 177 456.4018212781567 C 184.975 451.29668905289583 195.325 444.433047155234 200 441.1492837277971 L 208.5 435.17880476882095 L 213 435.666417110648 C 215.475 435.93460389865294 222.45 437.00144133039134 228.5 438.03716695895565 C 234.55 439.07289258751996 246.7 441.99766858193607 255.5 444.53666916876927 C 264.3 447.07566975560246 276.9 451.4189812554062 283.5 454.1884725016665 C 290.1 456.9579637479268 299.55 461.25661025127243 304.5 463.74102028687906 C 309.45 466.2254303224857 317.1 470.2900470361767 321.5 472.77350187285913 C 325.9 475.25695670954156 338.05 482.89778090042455 348.5 489.75311118593254 C 358.95 496.6084414714406 370.65 504.51053735900445 374.5 507.3133242694078 C 378.35 510.1161111798112 386.5625 516.1422078643595 392.75 520.7046502350706 C 398.9375 525.2670926057817 404.3375 529.0035258837282 404.75 529.0078352971739 C 405.1625 529.0121447106195 401.9 525.3770051229404 397.5 520.9297473245537 C 393.1 516.4824895261669 384.775 508.88581148447406 379 504.0482405652362 C 373.225 499.21066964599834 363.775 491.99260578544386 358 488.00809865289284 C 352.225 484.0235915203418 343.675 478.51137108296336 339 475.75871990316284 C 334.325 473.0060687233624 325.775 468.401993500244 320 465.5274416295664 C 314.225 462.65288975888876 304.1 458.03957772983983 297.5 455.27563712056866 C 290.9 452.5116965112975 281.225 448.6356894547155 276 446.6622881059419 C 270.775 444.68888675716835 261.325 441.72370102082033 255 440.07298646961294 C 248.675 438.4222719184055 238.775 436.39426496105744 233 435.56630434217277 C 227.225 434.7383437232881 219.8 433.7956801929819 216.5 433.47149649704784 L 210.5 432.88207159534966 L 218.76888888314903 424.69103579767483 C 223.316777768881 420.18596610895366 228.37090826477814 414.475 230.00028998514267 412 C 231.62967170550723 409.525 233.24909039680142 406.15 233.59899818801867 404.5 C 233.94890597923592 402.85 234.40727548333876 401.1625 234.617597086025 400.75 C 234.82791868871126 400.3375 238.0375 401.07163014043084 241.75 402.38140031206854 C 245.4625 403.69117048370623 253.225 406.65214488210665 259 408.96134341962505 C 264.775 411.27054195714345 272.875 414.90075412740055 277 417.028481575752 C 281.125 419.1562090241034 287.425 422.2555176901436 291 423.91583416695244 C 294.575 425.5761506437613 301.55 429.0955344795586 306.5 431.73668713539087 C 311.45 434.37783979122315 317.975 437.8628001813292 321 439.4810435578487 C 324.025 441.0992869343682 333.7 446.310844440132 342.5 451.06228245954594 C 351.3 455.81372047895985 364.35 462.7568410336378 371.5 466.49143924771914 C 378.65 470.2260374618005 385.4 473.84038636743 386.5 474.52332570467377 C 387.6 475.2062650419175 397.5 480.47971358075745 408.5 486.2421002354293 C 419.5 492.00448689010113 431.0875 498.35735433222254 434.25 500.3595834401436 C 437.4125 502.3618125480646 440.3375 504.011571388242 440.75 504.02571419609325 C 441.1625 504.0398570039445 440.4894125341418 503.02735700394453 439.2542500758708 501.77571419609325 C 437.5594478803045 500.05829883538 436.91167188774443 498.0280256114627 436.61381286064005 493.5 C 436.39673485053424 490.2 435.61762202635515 484.8 434.88245102913106 481.5 C 434.1472800319069 478.2 431.8479767787607 472.2375 429.77288824436175 468.25 C 427.6977997099628 464.2625 426.45 461 427 461 C 427.55 461 431.43151520875665 464.2625 435.62558935279253 468.25 C 439.8196634968284 472.2375 446.3028843312346 479.55 450.032746762584 484.5 C 453.76260919393343 489.45 458.91813567723915 497.325 461.4894722810411 502 C 464.060808884843 506.675 467.31258289660167 513.2 468.7156367516158 516.5 C 470.11869060662997 519.8 472.57192058439017 526.325 474.1672589244163 531 C 475.7625972644423 535.675 479.0286989423868 546.025 481.4252626531818 554 C 483.8218263639767 561.975 486.6190546941542 571.8213211193985 487.64132560913174 575.8807135986633 C 488.66359652410927 579.9401060779281 489.8375 583.4276060779281 490.25 583.6307135986633 C 490.6625 583.8338211193985 490.7285556164284 579.8375 490.3967902587299 574.75 C 490.06502490103134 569.6625 488.6698872366004 560.1 487.29648433777226 553.5 C 485.9230814389441 546.9 483.66396351419314 538.35 482.27622228277005 534.5 C 480.88848105134696 530.65 477.7552170528407 523.225 475.3134133972005 518 C 472.87160974156035 512.775 469.2486223562408 505.8 467.2623303187126 502.5 C 465.2760382811844 499.2 460.63602175304095 492.45 456.9511824783939 487.5 C 453.2663432037468 482.55 447.04489289738893 475.4625 443.12573735315414 471.75 C 439.20658180891934 468.0375 432.9625 462.9885167512886 429.25 460.5300372250858 C 425.5375 458.07155769888294 421.76022272838026 454.80905769888295 420.8560505075117 453.2800372250858 C 419.9518782866432 451.7510167512886 415.78937828664317 447.2375 411.6060505075117 443.25 C 406.3748109037001 438.2636424823661 403.5252162726135 434.6730371655095 402.47936144935994 431.75 C 401.6430102465079 429.4125 400.9682542882139 427.05 400.9799037642622 426.5 C 400.9931911264953 425.8726714233371 405.00710032541224 425.6410182806426 411.7505423149022 425.87839842770825 C 419.1684062611794 426.13951932668306 424.82448499014 425.75636622077974 430 424.64214682511044 C 434.125 423.7540893084421 440.2 421.7147364391484 443.5 420.11025156001335 C 447.1545235719649 418.33339464738896 451.17147521561935 415.2984465041719 453.77582693811917 412.34650316261116 C 456.7395897060905 408.987179729722 458.39941493701514 405.9657188081553 459.1849567630407 402.5 C 460.05776551264756 398.6492697152237 460.024350087034 396.1208763417316 459.0395799852011 391.5 C 458.336306169648 388.2 456.6274020551406 383.25 455.2420152862957 380.5 C 453.8566285174509 377.75 450.8881014757592 372.8 448.64528852698095 369.5 C 446.4024755782027 366.2 441.3544459726038 360.125 437.42744495898336 356 C 433.5004439453629 351.875 429.7727684149288 347.4875 429.14372155801857 346.25 C 428.51467470110833 345.0125 427.99366513263465 343.4375 427.98592251696584 342.75 C 427.97817990129704 342.0625 429.4406799012971 340.9728627318573 431.23592251696584 340.3285838485717 C 433.0311651326346 339.68430496528623 435.7375 337.7718049652862 437.25 336.0785838485717 C 438.7625 334.3853627318573 440 331.875 440 330.5 C 440 329.125 441.09317299433803 326.0875 442.42927332075124 323.75 C 444.019864767654 320.9672692172628 445.09381069095036 317.08332128921427 445.5399977333606 312.5 C 446.06496175146646 307.10746608135804 445.8515652738352 304.63885745641534 444.6107244126094 301.75 C 443.7248259856742 299.6875 442.325 297.775 441.5 297.5 C 440.675 297.225 439.9895833333333 296.6625 439.97685185185185 296.25 C 439.9641203703704 295.8375 441.2016203703704 295.19899071120403 442.72685185185185 294.8310904693423 C 444.2520833333333 294.4631902274806 446.8172375357916 293.1131902274806 448.4271945239813 291.8310904693423 C 450.037151512171 290.54899071120406 451.94965151217104 288.0375 452.6771945239813 286.25 C 453.8393341389557 283.39473985998734 453.75167778812136 282.3016140938686 451.9554960863809 277.25 C 450.8310189338904 274.0875 448.7683820390305 267.9 447.37185854224776 263.5 C 445.975335045465 259.1 443.0703618065936 252.2375 440.9163624558669 248.25 C 437.411751732639 241.76223794280352 437.1532601111841 240.81601153104742 438.4577282810116 239.25 C 439.259478835568 238.2875 440.721978835568 235.27750153965223 441.7077282810116 232.56111453256057 C 442.79812337225127 229.5563600565314 444.1853224795923 227.50039261775447 445.25 227.31111453256057 C 446.2125 227.14000153965225 447.0034794126945 226.6625 447.00773202821006 226.25 C 447.0119846437256 225.8375 446.2292557467868 224.375 445.2683344794572 223 C 444.30741321212764 221.625 442.70254476592845 217.575 441.7019601545702 214 C 440.70137554321195 210.425 438.8319920058129 202.775 437.5477745159057 197 C 436.2635570259985 191.225 434.1182581272464 183.8 432.7804436297899 180.5 L 430.34805363441444 174.5 L 430.7934921244798 163 C 431.0731995382735 155.77872179802864 430.76497165808127 149.2676234097242 429.96506232943113 145.5 C 429.26443477261836 142.2 427.22572628340976 136.575 425.43459902007856 133 C 423.6434717567474 129.425 420.33795309677606 124.8125 418.08900199792004 122.75 C 415.840050899064 120.6875 411.4125 117.70868538401733 408.25 116.13041196448295 C 405.0875 114.55213854494856 401.375 112.91424445837639 400 112.49064732765588 C 398.625 112.06705019693537 395.025 109.47861395318704 392 106.7385667859929 C 388.74577768592627 103.79088988248955 382.8250910593934 100.01300669325789 377.5 97.48637870389247 C 372.55 95.13772242593136 366.25 92.65107296109153 363.5 91.96049100424841 C 360.75 91.2699090474053 353.1 90.5912582403744 346.5 90.45237809973528 C 336.03787376623825 90.23222937810968 333.66698504328764 89.85103574944353 328 87.47793140299298 C 324.425 85.98086586042382 318.125 83.88669988385278 314 82.82422923283512 C 309.852705984129 81.75601634240988 301.8062116222194 80.71825579423705 296 80.50275990383929 Z " class="odd" fill="#000000"></path><path d="M 309 86.10902585279966 L 313.5 86.16243776089631 L 310.5 87.53611495795681 C 308.85 88.2916374163401 306.9375 88.93008892013842 306.25 88.95489607750866 C 305.5625 88.9797032348789 301.7375 90.63016905082821 297.75 92.62259789072937 C 293.7625 94.6150267306305 288.25 97.91780579637631 285.5 99.96210692572004 C 282.75 102.00640805506374 277.8 106.36633397103105 274.5 109.65083118342515 C 271.2 112.93532839581925 265.98685776981847 118.97004933007345 262.91523948848544 123.06132214843448 C 259.8436212071524 127.15259496679552 255.2933926565808 133.875 252.80362048721514 138 C 250.31384831784948 142.125 246.12685403526703 149.775 243.499188748143 155 C 240.871523461019 160.225 236.5820121636008 169.9 233.96694142054702 176.5 C 231.35187067749325 183.1 228.04289128472632 192.325 226.61365388106498 197 C 225.18441647740366 201.675 224.00581911529457 205.95 223.99454863193372 206.5 C 223.98327814857288 207.05 228.0661100155481 200.75 233.0675083363231 192.5 C 238.06890665709813 184.25 244.90743607280447 173.45 248.2642403712261 168.5 C 251.62104466964774 163.55 258.44732870820343 154.10908221372625 263.4337604569055 147.52018269716942 C 268.42019220560746 140.93128318061258 277.45 130.48334112660666 283.5 124.30253368826732 C 289.55 118.12172624992797 295.175 113.04707686164255 296 113.02553504763303 C 296.825 113.0039932336235 295.72276834600564 114.45193528762945 293.55059632445705 116.24318405653513 C 291.3784243029084 118.0344328254408 285.59450177241007 124 280.69743514557194 129.5 C 275.80036851873376 135 268.08065665407224 145.125 263.5425198907685 152 C 259.00438312746485 158.875 253.65080565796316 167.5375 251.64568106965365 171.25 C 249.64055648134413 174.9625 248.1125 178.23141519532933 248.25 178.51425598962072 C 248.3875 178.7970967839121 250.81038025173694 175.9845967839121 253.6341783371932 172.26425598962072 C 256.45797642264944 168.54391519532933 262.10637324097763 161.675 266.1861712668114 157 C 270.2659692926452 152.325 277.8555890409082 144.7297632887624 283.0519929296182 140.12169619724978 C 288.2483968183282 135.51362910573712 295.65 129.6206763762901 299.5 127.02624568736746 C 303.35 124.43181499844484 307.5125 121.78955170968244 308.75 121.1545494901177 C 309.9875 120.51954727055296 311 120.225 311 120.5 C 311 120.775 308.6980833277089 123.5875 305.88462961713094 126.75 C 303.071175906553 129.9125 298.2051181402133 136.325 295.07116791415393 141 C 291.93721768809456 145.675 287.26413436038564 153.4375 284.686538297023 158.25 C 282.10894223366034 163.0625 280.1125 167.2163778399963 280.25 167.48083964443623 C 280.3875 167.74530144887615 283.2 164.76770116623442 286.5 160.86395012745461 C 289.8 156.9601990886748 295.2 151.4158545556936 298.5 148.54318449860756 C 301.8 145.67051444152148 307.2029429372046 141.3356147241632 310.5065398604547 138.91007401558915 C 313.8101367837049 136.4845333070151 320.1101367837049 132.62549204151043 324.5065398604547 130.33442675891203 C 328.9029429372046 128.04336147631363 336.1 124.7441486665723 340.5 123.00284273726459 C 344.9 121.26153680795687 352.1 118.95730834277349 356.5 117.88233503685704 C 360.9519800330102 116.7946623791391 370.0437811984216 115.66943426682973 377 115.34519460861073 C 384.7424787974053 114.98430620779318 391.78361017724546 115.19807385870737 395.5 115.90685172428894 C 398.8 116.536217067531 403.75 118.07862258566158 406.5 119.33441954235691 C 409.25 120.59021649905225 413.4668403600629 123.39120722067003 415.87075635569533 125.55884336817421 C 418.27467235132775 127.72647951567839 421.40386656960857 131.525 422.8245212852082 134 C 424.2451760008079 136.475 426.0138830110441 140.525 426.7549813079553 143 C 427.4960796048665 145.475 428.4992863732602 151.1 428.98432968216343 155.5 C 429.4693729910666 159.9 429.55882562076755 165.17610146056185 429.18311330372103 167.22466991235964 L 428.5 170.9493398247193 L 422.75 164.47466991235964 L 417 158 L 418.89818637351135 154.25 C 419.9421888789426 152.1875 420.91004893288334 149.15 421.04898649337974 147.5 C 421.18792405387615 145.85 421.233740185796 143.2625 421.1508001198684 141.75 C 421.06601818216956 140.2039115162823 419.5336181716053 137.35830247779688 417.6504597941401 135.25 C 415.80821268091717 133.1875 411.87071268091717 130.4004140568824 408.9004597941401 129.05647568196088 C 404.5844153346415 127.10361240799178 401.3915941516515 126.52955180605154 393 126.19761607241566 C 387.225 125.96918166208732 379.35 126.26443533977361 375.5 126.85373535616297 C 371.65 127.44303537255233 364.9 129.10449991482497 360.5 130.5458787834355 C 356.1 131.98725765204608 348.675 135.02333781299393 344 137.29272358554192 C 339.325 139.56210935808988 331.225 144.3135159481467 326 147.85140489677923 C 320.775 151.38929384541183 312.675 157.48135021031774 308 161.38930792990357 C 303.325 165.29726564948936 295.5022228927272 172.54588134145524 290.6160508727271 177.49734280093887 C 285.729878852727 182.4488042604225 278.5262623076392 190.775 274.6080141058652 196 C 270.68976590409125 201.225 264.4907139939182 210.225 260.8323431943695 216 C 257.17397239482085 221.775 250.8775889399087 232.05767348919244 246.8403799612314 238.85038553153873 L 239.5 251.20077106307744 L 230.5 251.36953298896444 C 222.98580411790257 251.51043411880386 220.55073625800668 251.9891295763116 215.75 254.26914745742573 C 212.5875 255.77111635584157 208.89999416757155 258.4625 207.55554259460345 260.25 C 206.21109102163535 262.0375 204.40180367384733 265.525 203.5349040439634 268 C 202.5956703236818 270.68151395797486 201.9673819011347 275.73286407471136 201.98015034438964 280.5 C 201.99819493108834 287.2369996319017 202.45690283854051 289.44725027607376 204.88566276727423 294.5 L 207.76974774448908 300.5 L 207.13487387224455 308.83218677487673 C 206.57853769523936 316.13363221007734 206.19073504725554 317.40686964856326 204 319.12463526594445 C 202.625 320.20277920984955 201.05 321.079950267841 200.5 321.07390428370326 C 199.95 321.0678582995655 198.74153716825325 319.361256478585 197.81452704056278 317.2814557926355 C 196.88751691287231 315.20165510668596 195.65687811010673 311.925 195.07977414552818 310 C 194.50267018094962 308.075 193.55147817503095 302.9 192.96601413237556 298.5 C 192.10351542598238 292.01797201597935 192.20424671495132 288.7922814820232 193.49688710188258 281.5 C 194.37433127776683 276.55 196.42148611543223 268.5625 198.0461200744724 263.75 C 199.6707540335126 258.9375 203.025 250.95 205.5 246 C 207.975 241.05 210.0169176948254 236.6625 210.03759487738978 236.25 C 210.05827205995416 235.8375 206.8872365051184 238.875 202.990849199977 243 C 199.0944618948356 247.125 194.2400442000102 252.8611153376528 192.2032543225872 255.74692297256175 C 190.16646444516425 258.6327306074707 188.4047093560531 260.8827306074707 188.28824301345134 260.7469229725617 C 188.1717766708496 260.6111153376528 188.9592766708496 256.7875 190.03824301345134 252.25 C 191.1172093560531 247.7125 193.125 241.75 194.5 239 C 195.875 236.25 196.55 234 196 234 C 195.45 234 192.4125 236.90692003778838 189.25 240.45982230619643 C 186.0875 244.01272457460445 183.1625 246.93772457460443 182.75 246.95982230619643 C 182.3375 246.9819200377884 182.47376806408525 245.0875 183.0528179201894 242.75 C 183.63186777629357 240.4125 185.89212853695378 233.1 188.0756196105454 226.5 C 190.25911068413703 219.9 196.0759241066559 206.4 201.00187166058734 196.5 C 205.9278192145188 186.6 209.8550584538586 178.41018833089015 209.72906997023136 178.30041851308923 C 209.6030814866041 178.1906486952883 206.75557021703614 181.5656486952883 203.40126714896917 185.80041851308923 C 200.0469640809022 190.03518833089015 194.30946408090222 197.8875 190.65126714896917 203.25 C 186.99307021703612 208.6125 183.775 213 183.5 213 C 183.225 213 183.28268659286064 211.5375 183.62819242857918 209.75 C 183.97369826429772 207.9625 186.0116186231661 200.2 188.15690433717555 192.5 C 190.302190051185 184.8 191.93200345832437 178.37534372544943 191.77871190859636 178.2229860565543 C 191.62542035886835 178.07062838765918 187.86540596203122 181.44562838765918 183.42312436006938 185.7229860565543 C 178.98084275810757 190.00034372544943 172.96106023774348 196.65 170.04582987037145 200.5 C 167.13059950299944 204.35 163.5687490158479 209.75 162.1306065655903 212.5 L 159.51580211057646 217.5 L 159.17572987255775 214.5 C 158.98869014164745 212.85 159.57116990114926 208.575 160.47012933811726 205 C 161.3690887750853 201.425 163.431065807314 195.9125 165.05230052084775 192.75 C 166.6735352343815 189.5875 167.55 187 167 187 C 166.45 187 165.55 187.9 165 189 C 164.45 190.1 163.75548224594272 190.8875 163.45662721320605 190.75 C 163.15777218046938 190.6125 163.8848584316967 182.625 165.0723744381557 173 C 166.25989044461465 163.375 167.60088436348335 154.6 168.05236092453055 153.5 C 168.72891409351988 151.85161213206274 168.8843710952788 152.07136971460193 168.9366136995809 154.75 C 168.9714761648114 156.5375 169.4980521008894 160.3625 170.10678244642085 163.25 C 170.7155127919523 166.1375 171.6230127919523 168.95 172.12344911308753 169.5 C 172.6935460389245 170.12655985580557 173.02294576872487 169.5663996395139 173.00551745769715 168 C 172.99021872609725 166.625 173.89729970311177 161.9 175.0212529621739 157.5 C 176.14520622123598 153.1 177.50349523213112 149.05 178.0396729863853 148.5 C 178.67345624006418 147.84987830666674 178.7495889999589 149.86506303107316 178.25727081524195 154.25967325212292 C 177.84077186685886 157.97749354079056 177.8375 161.01499354079056 178.25 161.00967325212292 C 178.6625 161.00435296345532 181.88147307977 155.0375 185.4032735106 147.75 C 188.92507394143 140.4625 195.4040793112024 129.1 199.80106322120534 122.5 C 204.19804713120828 115.9 209.47407734737598 108.925 211.52557481268911 107 C 213.57707227800225 105.075 215.08186457738623 103.95 214.86955770020907 104.5 C 214.65725082303192 105.05 212.84867438815516 108.65 210.8504989560385 112.5 C 208.85232352392188 116.35 206.23132226910428 122.875 205.02605172311053 127 C 203.82078117711674 131.125 202.9843543160558 134.59443760771973 203.16732536519729 134.7098613504883 C 203.35029641433877 134.82528509325687 205.34401214468716 132.57528509325687 207.59780476597146 129.7098613504883 C 209.85159738725577 126.84443760771973 216.60159738725577 119.37638480485164 222.59780476597146 113.11418845522587 C 228.59401214468716 106.85199210560009 236.2 99.7909459233637 239.5 97.42297471692274 C 242.8 95.05500351048181 246.9625 92.64111870563016 248.75 92.05878626169688 C 250.5375 91.4764538177636 252.21703335609428 91.1125 252.48229634687613 91.25 C 252.747559337658 91.3875 251.99696748084506 94.425 250.81431444284732 98 C 249.6316614048496 101.575 246.97784460970567 106.75 244.9169437869719 109.5 C 242.8560429642381 112.25 239.0518562227898 118.1 236.46319547264233 122.5 C 233.87453472249481 126.9 230.23631816154452 133.5375 228.37826978164162 137.25 C 226.52022140173872 140.9625 224.98608453041567 144.5625 224.96907673425702 145.25 C 224.95206893809836 145.9375 231.13956893809836 140.34840905728424 238.71907673425702 132.82979790507608 C 246.29858453041567 125.31118675286791 254.75 117.24385407622677 257.5 114.90239195698464 C 260.25 112.5609298377425 266.1 107.97593298611615 270.5 104.71351006448162 C 274.9 101.4510871428471 281.2 97.20113087427825 284.5 95.26916280099529 C 287.8 93.33719472771233 293.65 90.47379565961262 297.5 88.90605376077373 C 301.7791587728453 87.16355596857281 306.2491122174566 86.07637470492735 309 86.10902585279966 Z " class="even" fill="#deceb1"></path><path d="M 361.5 155.52861681361867 C 368.1 155.75796330565214 377.55 156.6417763562389 382.5 157.49264581492258 C 387.45 158.34351527360624 395.325 160.17863930594575 400 161.57069922012147 C 404.675 162.96275913429716 410.4125 164.753830865569 412.75 165.55085862294774 C 415.4213439866179 166.46171864726486 418.0855288212957 168.39293177651362 419.9224210033083 170.75 C 421.5297525551278 172.8125 424.4070855958265 177.875 426.3164944270831 182 C 428.2259032583397 186.125 430.510813806851 192.9875 431.39407342377484 197.25 L 433 205 L 428.13472778105046 209.75 C 424.83022514905235 212.9762095100981 422.9054371618078 215.86339149096486 422.13472778105046 218.75 C 421.31151195356404 221.83326571821345 421.29493542349917 224.16673428178655 422.07434534961294 227.25 C 422.66523529190005 229.5875 426.8133293656473 237.35 431.2923321801623 244.5 C 435.780941293583 251.66533489484596 440.8601058684767 261.31497333798535 442.60902958843195 266 C 444.35421034846524 270.675 446.50334394100935 275.85 447.38488201630776 277.5 C 448.2664200916062 279.15 448.99045085055906 281.7375 448.99383925842517 283.25 C 448.9974130800788 284.84526404866364 448.0552160398157 286.8444872262856 446.75 288.0111436468205 C 445.5125 289.11727265257184 443.375 290.508815838804 442 291.10346183844763 C 440.625 291.6981078380912 437.8125 291.91809319702196 435.75 291.5923181916271 C 433.02102017587663 291.1612716864507 430.6386397654978 289.6386397654978 427 286 C 424.25 283.25 420.7625 280.70758908256016 419.25 280.35019796124476 C 417.4161384133971 279.91687178023767 415.3340056556764 280.33394547798895 413 281.6021405193163 C 410.80233209965957 282.79625567791413 409.5 284.24735207145375 409.5 285.5019425580716 C 409.5 287.2129116205746 410.0747349868948 287.45985299651073 413.5 287.220587718481 C 415.7 287.06691096364557 418.85 286.85627567648663 420.5 286.7525093025722 C 422.76679422586807 286.6099535345551 424.4165072176649 287.47254868925563 427.25 290.28192158409126 C 429.3125 292.32686471284103 432.36041666666665 294.3375 434.02314814814815 294.75 C 435.68587962962965 295.1625 437.0358796296296 295.8375 437.02314814814815 296.25 C 437.0104166666667 296.6625 436.1 297.225 435 297.5 C 433.9 297.775 432.775 297.55 432.5 297 C 432.225 296.45 430.65 295.325 429 294.5 C 427.35 293.675 424.0875 292.6147269370706 421.75 292.1438376379347 C 419.32884781132884 291.65609660810594 414.91809720753577 291.6780881748536 411.5 292.1949431252795 C 407.4125142881861 292.8130171871548 400.55933808885254 295.4697147889705 390 300.529618431686 C 380.15600498999123 305.24673855710375 371.85444927887505 308.5122219131349 367.25 309.4785129443412 C 363.2625 310.31533082495355 358.7625 310.71184707264297 357.25 310.3596601614288 C 355.7375 310.0074732502146 353.2625 309.10747325021464 351.75 308.3596601614288 C 350.2375 307.61184707264295 348.325 305.65 347.5 304 C 346.675 302.35 345.55 301 345 301 C 344.45 301 344 302.575 344 304.5 C 344 306.425 344.6182761260493 309.2375 345.3739469467762 310.75 C 346.129617767503 312.2625 348.26711776750307 314.8786477416238 350.1239469467762 316.56366164805297 C 351.98077612604925 318.24867555448213 354.5125 319.93617555448213 355.75 320.31366164805297 C 357.58287685062345 320.8727610600435 357.8946237213751 321.50981718257134 357.4315908209353 323.75 C 357.11896577244966 325.2625 355.83641923070616 328.3 354.58148739483863 330.5 C 353.3265555589711 332.7 350.5448396895502 335.59664295101766 348.39989657390333 336.93698433559473 C 346.2549534582565 338.2773257201718 342.7 339.57828140001766 340.5 339.82799695747434 C 337.5828071856533 340.15911897103945 334.9434646706234 339.56709838266613 330.75 337.6410126218796 C 327.5875 336.18845567984584 324.33494687868074 333.9875 323.5221041748461 332.75 C 322.7092614710115 331.5125 321.622606804499 329.15 321.10731602704067 327.5 C 320.45197966907324 325.4015634706684 320.62031623875095 322.5466124802184 321.6674648412543 318 C 322.6033074040543 313.9366669970486 322.9462357254464 309.34448688722625 322.5822529890597 305.75 C 322.26201384507686 302.5875 321.25042646336806 298.0875 320.3342810297068 295.75 C 319.41813559604554 293.4125 316.66379511127656 288.35 314.2135243968868 284.5 C 311.41232444531 280.0986006973696 308.8715013070521 274.3445562960512 307.3691631274509 269 C 306.0550351436509 264.325 303.0718756284199 256.69012151748694 300.73991976027094 252.03360337219323 C 298.4079638921219 247.3770852268995 294.06083813125974 239.95208522689953 291.0796402916883 235.53360337219323 C 288.09844245211684 231.11512151748695 284.50335111310545 225.025 283.0905484272185 222 C 280.89842651829065 217.30637304080165 280.5343859027623 215.1804804786882 280.60754951220645 207.5 C 280.6730196735239 200.6271529691311 281.2417147238396 197.08189802057927 283.01370249091394 192.5 C 284.6369038954616 188.30282469174244 287.0116322410989 184.8183721559515 290.91706111423764 180.9033565157469 C 293.98767750140695 177.82520259940767 299.65 173.26251920083794 303.5 170.76406007448082 C 307.35 168.2656009481237 312.75 165.1590905160376 315.5 163.86070355873392 C 318.25 162.56231660143027 320.725 161.24475011889513 321 160.9327780419892 C 321.275 160.62080596508324 324.875 159.5878999883266 329 158.63743142697444 C 333.125 157.68696286562226 339.425 156.50482796486855 343 156.01046498085506 C 346.575 155.51610199684157 354.9 155.2992703215852 361.5 155.52861681361867 Z " class="even" fill="#deceb1"></path><path d="M 357.5 191.06246756912265 C 354.75 191.10235331808252 350.475 191.6768172077301 348 192.3390539905617 C 345.525 193.00129077339326 341.475 194.73261789114866 339 196.18644758557366 C 336.525 197.64027727999863 333.0665750864329 200.33057508460024 331.3146113031843 202.164887151355 C 329.5626475199356 203.99919921810974 326.5184002686954 208.2 324.54961741153943 211.5 C 322.5808345543835 214.8 320.97675946795056 218.2875 320.9850061083552 219.25 C 320.9950690712904 220.4244906228303 323.6279858466497 218.45131561539134 328.9911386574696 213.25 C 333.3862649190779 208.9875 339.7987649190779 203.80924862213243 343.2411386574696 201.74277471584983 C 346.6835123958613 199.67630080956724 351.975 197.4941641452632 355 196.89358212850755 C 358.025 196.29300011175187 362.525 196.0945025106793 365 196.4524763483463 C 367.475 196.8104501860133 371.75 197.7412207547683 374.5 198.5208553900241 C 377.25 199.30049002527994 383.1 201.9745317086683 387.5 204.46317024199828 C 391.9 206.95180877532826 395.6125 208.76567487087726 395.75 208.49398378766276 C 395.8875 208.22229270444825 393.6375 206.1467803320414 390.75 203.88173407120314 C 387.8625 201.61668781036485 382.9125 198.46668781036485 379.75 196.88173407120314 C 376.5875 195.2967803320414 371.4125 193.32273830575082 368.25 192.4949740127796 C 365.0875 191.6672097198084 360.25 191.02258182016274 357.5 191.06246756912265 Z " class="odd" fill="#000000"></path><path d="M 405.75 205.12168676361333 C 404.2375 203.404759043626 402.775 202.45 402.5 203 C 402.225 203.55 402.675 205.575 403.5 207.5 C 404.3484848484849 209.47979797979798 406.3030303030303 211.65151515151516 408 212.5 C 409.65 213.325 412.125 214 413.5 214 C 414.875 214 417.2375 213.37635275845855 418.75 212.61411724101902 C 420.2625 211.85188172357948 422.0216951167123 210.16438172357948 422.65932248158293 208.86411724101902 C 423.2969498464536 207.56385275845855 424.06171099736764 205.825 424.35879170583644 205 C 424.65587241430524 204.175 424.69667729759294 203.1625 424.4494692242535 202.75 C 424.20226115091407 202.3375 422.68667360775805 203.4625 421.081496906129 205.25 C 418.50588387313485 208.11816292050887 417.59534929896364 208.48492469186402 413.331496906129 208.37168676361333 C 409.25808723830374 208.2635065478826 408.06851055773404 207.75356447975008 405.75 205.12168676361333 Z " class="odd" fill="#000000"></path><path d="M 369.5 209.09161372515166 C 367.3 209.11784307344504 363.475 209.75150259324897 361 210.49974599138258 C 358.525 211.2479893895162 353.6081985036033 213.80414611341888 350.07377445245186 216.18009426672185 C 346.5393504013004 218.55604242002482 342.0393504013004 222.43144591736473 340.07377445245186 224.79210203858827 C 338.1081985036033 227.15275815981178 336.95 229.06880631241407 337.5 229.04998682214884 C 338.05 229.0311673318836 340.975 227.14807363756648 344 224.8653341681108 C 347.025 222.58259469865507 351.975 219.60978016135607 355 218.25907964077965 C 359.4563821468974 216.26924900087826 361.74959744601443 215.86936321865525 367.08553888537574 216.15163025622945 C 372.2768404865085 216.42624596195984 375.2408077971788 217.2948690265521 381.08553888537574 220.25448350313044 C 385.1634924984191 222.3194494298522 388.8375 224.0069494298522 389.25 224.00448350313044 C 389.6625 224.0020175764087 390 223.55 390 223 C 390 222.45 388.0875 219.9070728197258 385.75 217.3490507105018 C 383.4125 214.79102860127782 379.7 211.87591150149873 377.5 210.87101271099272 C 375.3 209.86611392048673 371.7 209.06538437685825 369.5 209.09161372515166 Z " class="odd" fill="#000000"></path><path d="M 434.5 209.31187820730563 C 435.05 209.5219208096859 436.4 211.789271857321 437.5 214.35043609093918 C 438.6 216.91160032455738 439.275 219.23201769482125 439 219.50691913596998 C 438.725 219.7818205771187 436.925 220.4248434929191 435 220.93585894885976 C 433.075 221.4468744048004 430.4875 222.12035791873723 429.25 222.43248897983045 C 427.47749632661015 222.87956247669257 427 222.57555882079097 427 221 C 427 219.9 427.72926507451587 217.5375 428.6205890544797 215.75 C 429.5119130344435 213.9625 430.9744130344435 211.6967460774882 431.8705890544797 210.7149912833071 C 432.7667650745159 209.73323648912603 433.95 209.10183560492536 434.5 209.31187820730563 Z " class="even" fill="#deceb1"></path><path d="M 370 218.05852192614486 C 368.625 218.09992017608965 365.7 218.70455074193362 363.5 219.4021454057981 C 361.3 220.0997400696626 357.7 221.6053518189481 355.5 222.74794929309925 C 353.3 223.8905467672504 349.5875 226.43968441572855 347.25 228.41269962305068 C 344.9125 230.3857148303728 343.1125 232.23724106112033 343.25 232.5272023580452 C 343.3875 232.81716365497005 346.65 231.46936067027164 350.5 229.53208461427096 C 354.35 227.59480855827024 358.2875 226.00756749714992 359.25 226.00488225622576 C 360.2125 226.0021970153016 360.775 226.45 360.5 227 C 360.225 227.55 360.675 228.45 361.5 229 C 362.44117647058823 229.62745098039215 362.8137254901961 230.9313725490196 362.5 232.5 C 362.155451956947 234.2227402152649 362.5440818493146 235.28743363787342 363.75 235.9245095511129 C 364.7125 236.43298980422497 365.275 237.13865790911024 365 237.49266089530235 C 364.725 237.84666388149446 361.575 237.65266283958232 358 237.0615474688309 C 354.425 236.4704320980795 350.375 235.70578263697834 349 235.36232644416168 L 346.5 234.73786063904043 L 348 236.3620187611828 C 348.825 237.25530572836115 352.65 239.10479565680083 356.5 240.4719963799377 C 361.1014329415203 242.1060437682786 365.72724084001686 242.97465142847014 370 243.00694890496518 C 375.15743496791373 243.04593358170777 377.2017560916015 242.58555606514352 379.8975371668378 240.77804096669007 C 381.7661826085986 239.52511843501054 384.0161826085986 237.4104515822839 384.8975371668378 236.07878129396425 L 386.5 233.65756258792854 L 383.5 234.33554144867827 C 381.85 234.70842982209064 379.00449291653274 235.34797823980674 377.17665092562834 235.75676015471402 L 373.8533018512567 236.5 L 375.42665092562834 232.75 C 376.29199291653276 230.6875 376.775 228.55 376.5 228 C 376.225 227.45 376.45 227 377 227 C 377.55 227 379.35 227.675 381 228.5 C 382.65 229.325 384.4770360033954 229.8875 385.06008000754537 229.75 C 385.648472346869 229.61123869539665 385.0886874588631 227.94265826444686 383.8020086008062 226 C 382.5270253229497 224.075 379.4624893195543 221.4837317856779 376.9919285932608 220.24162619039532 C 374.52136786696735 218.99952059511276 371.375 218.01712367620004 370 218.05852192614486 Z " class="odd" fill="#000000"></path><path d="M 438.5 226.5 C 439.325 226.775 439.9938553925184 227.5625 439.98634531670757 228.25 C 439.97883524089673 228.9375 439.7538352408967 230.5125 439.48634531670757 231.75 C 439.21885539251844 232.9875 438.55 233.775 438 233.5 C 437.45 233.225 437 231.425 437 229.5 C 437 226.83333333333334 437.35714285714283 226.11904761904762 438.5 226.5 Z " class="even" fill="#deceb1"></path><path d="M 229 255.44068103319162 C 233.59921059256368 255.62109681982912 238.2404736444618 256.4823909781579 241 257.667559747967 C 243.475 258.73052937657394 247.69615991088978 261.6026796449842 250.38035535753284 264.0501158999898 C 253.0645508041759 266.4975521549954 258.3912453080637 273.225 262.2174542550612 279 C 266.0436632020588 284.775 273.35327034888365 298.05 278.4610256924499 308.5 C 283.5687810360161 318.95 290.7803878079101 334.25 294.486818518881 342.5 C 298.193249229852 350.75 303.7489569709114 362 306.83283572123537 367.5 C 309.9167144715594 373 314.3659131957776 379.6375 316.7199439972759 382.25 C 319.07397479877415 384.8625 321.45 387.9 322 389 C 322.55 390.1 323.45 390.775 324 390.5 C 324.6005382295855 390.19973088520726 324.7105053442912 390.69905809822546 324.2752882074087 391.75 C 323.6994684129778 393.14046259569074 323.9049183582974 393.3459125410103 325.2752882074087 392.75 C 326.3186096447715 392.2963061820628 326.80246254529146 392.395074909417 326.5 393 C 326.225 393.55 326.42157699964037 394.5625 326.93683777697856 395.25 C 327.45209855431676 395.9375 329.02709855431675 396.3875 330.43683777697856 396.25 C 331.8827955616525 396.1089673946808 332.7820652106384 396.4358695787232 332.5 397 C 332.225 397.55 332.5625 397.9875 333.25 397.97222222222223 C 333.9375 397.95694444444445 334.17291836439045 398.2944444444445 333.7731519208677 398.72222222222223 C 333.3733854773449 399.15 332.35046711295445 398.825 331.5 398 C 330.6495328870456 397.175 329.72553414454444 396.725 329.44666946110857 397 C 329.1678047776727 397.275 332.21572314206315 400.5635181913045 336.2198213819762 404.307818202899 C 340.2239196218893 408.0521182144935 344.0625 410.8646182144935 344.75 410.557818202899 C 345.44657429612465 410.2469687452591 346.13171018580164 410.7747959854255 346.2974884091924 411.75 C 346.4611070342482 412.7125 349.2736070342482 415.25892033921866 352.5474884091924 417.4087118649304 C 355.82136978413655 419.5585033906421 359.01952882373433 421.3585033906421 359.65450849718746 421.4087118649304 C 360.2894881706406 421.45892033921865 360.6269881706406 421.8375 360.40450849718746 422.25 C 360.18202882373436 422.6625 363.7125 424.59605520633147 368.25 426.54678934740326 C 372.7875 428.49752348847505 376.725 429.99648262432555 377 429.8778096492933 C 377.275 429.759136674261 378.625 430.2431835674505 380 430.9534694119367 C 381.375 431.66375525642286 384.3 432.44824303884315 386.5 432.69677559509296 C 388.7 432.9453081513428 390.95 433.56702292098544 391.5 434.0783639720768 C 392.05 434.58970502316805 393.4 434.7239182520082 394.5 434.3766155917216 C 396.19553968883116 433.841283369401 396.2716547666234 433.59796329753476 395 432.77824586706237 C 393.777644507952 431.99030708889387 393.8239185926107 431.9213442458601 395.25 432.4056677623712 C 396.2125 432.73255049306704 397.225 432.55 397.5 432 C 397.775 431.45 397.325 430.775 396.5 430.5 C 395.675 430.225 395.03552631578947 429.4375 395.07894736842104 428.75 L 395.1578947368421 427.5 L 395.57894736842104 428.75 C 395.81052631578945 429.4375 396.675 430 397.5 430 C 398.3333333333333 430 399 430.8888888888889 399 432 C 399 433.1 398.55 433.775 398 433.5 L 397 433 L 397 433.5 C 397 433.775 397.91162774129856 434.7875 399.02583942510796 435.75 C 400.579385673454 437.0920145253915 401.7458608839184 441.1135856322466 404.0292813252678 453 C 405.6669626865464 461.525 407.4519906615003 469.85 407.99601015849873 471.5 C 408.54002965549716 473.15 408.7634808004252 474.6125 408.49256825833885 474.75 C 408.2216557162525 474.8875 403.6125 472.1226010944637 398.25 468.6057802099193 C 392.8875 465.08895932537496 383.325 459.36954659459195 377 455.89597414151274 C 370.675 452.4224016884335 358.525 446.3697766596941 350 442.4456962998696 C 341.475 438.52161594004514 330 433.38471554664955 324.5 431.0303620923238 C 319 428.67600863799805 306.625 423.60682222779144 297 419.7655034029757 C 287.375 415.92418457815995 269.2504888334469 409.34299770233855 256.7233085187709 405.1406436789281 L 233.94661703754187 397.5 L 233.9703533299671 393.5 C 233.98340829080098 391.3 233.48142429957596 384.55 232.8548333494671 378.5 L 231.71557707654188 367.5 L 234.32734080855118 359.5 C 235.76381086115632 355.1 237.97978210641622 349.925 239.2517213535732 348 C 241.03560935768252 345.3001977762805 242.35718119174754 344.4263062308183 245.03216908329293 344.1776694465025 L 248.5 343.8553388930049 L 249.85256833174722 348.6776694465025 C 250.75646686775664 351.90035138067816 252.41505144794647 354.59064029223697 254.85256833174722 356.7878645601304 C 256.85865574928624 358.59619006820213 259.625 361.21668646910456 261 362.6111898954691 C 262.5415947111361 364.1746510640108 264.65008634663667 365.16138471606973 266.5 365.18508442506993 C 268.48840496217 365.21055838105286 270.00579751891496 364.48747880341637 271 363.0407097970934 C 271.825 361.8401651867905 273.7022444658858 359.4273735964114 275.17165436863513 357.6789507073622 C 276.6410642713845 355.930527818313 278.5535642713845 352.8125 279.42165436863513 350.75 C 280.2897444658858 348.6875 280.9657649335235 345.5375 280.92392207449666 343.75 C 280.8820792154698 341.9625 280.3195792154698 339.13393741680704 279.67392207449666 337.46430537068227 C 279.0282649335235 335.79467332455755 277.825 333.49356647497683 277 332.35073459383625 C 276.175 331.2079027126957 273.925 329.3131474230856 272 328.14016728359155 C 270.075 326.9671871440975 267.0375 326.00579399367825 265.25 326.00373806043757 C 262.66542064652083 326.0007653484902 262 326.4094896286282 262 328 C 262 329.5142453186818 262.66791268681254 330.0009078901783 264.75 330.00373806043757 C 266.2625 330.00579399367825 268.9625 330.90579399367823 270.75 332.00373806043757 C 272.5375 333.1016821271969 274 334.45 274 335 C 274 335.55 272.9875 336.2885852057061 271.75 336.64130045712466 C 270.5125 336.9940157085432 267.925 337.2840700883609 266 337.2858657456085 C 264.075 337.287661402856 260.925 336.4771977023587 259 335.48483530005893 C 257.075 334.49247289775917 250.775 329.13610329550664 245 323.5817917394977 C 239.2197052475451 318.02238776708253 231.35352983496992 311.6145229263479 227.5 309.3261174338386 C 223.65 307.03980812173495 218.7 303.62134384638716 216.5 301.72953015528805 C 214.3 299.83771646418893 211.18136171936908 295.8621483965267 209.56969270970905 292.89493444937204 C 207.35476669804686 288.8170752150458 206.53428338605224 285.79107719624034 206.2088719802257 280.5 C 205.97208958866986 276.65 206.32222542492553 271.475 206.98695161634944 269 C 207.809849905724 265.93607188571985 209.60041477359624 263.14370988570903 212.59777234583282 260.25 C 215.01899755562476 257.9125 218.0125 255.8079567333465 219.25 255.57323718521445 C 220.4875 255.3385176370824 224.875 255.2788673686721 229 255.44068103319162 Z " class="even" fill="#deceb1"></path><path d="M 229.75 263.03984580224187 C 229.6125 263.0617609934749 227.7 263.980515867241 225.5 265.08152329949996 C 223.3 266.1825307317589 220.25024743972918 268.3021001207501 218.72277208828706 269.7916774972581 C 217.1952967368449 271.28125487376616 215.28279673684492 273.9625 214.47277208828706 275.75 C 213.66274743972917 277.5375 212.99835406418023 280.9125 212.99634236484496 283.25 C 212.9943306655097 285.5875 213.83790843176044 289.075 214.87095962317994 291 C 215.90401081459947 292.925 218.37818103385717 295.85 220.36911566597482 297.5 C 222.36005029809246 299.15 224.3289725318417 300.1554487380123 224.7444984076398 299.7343305289162 C 225.16002428343793 299.31321231982014 224.0375 295.37571231982014 222.25 290.9843305289162 C 220.4625 286.5929487380123 219 281.875 219 280.5 C 219 279.125 219.7875 276.33094322103426 220.75 274.29098493563174 C 221.7125 272.2510266502292 224.17042189822388 269.4385266502292 226.21204866271972 268.04098493563174 C 228.25367542721557 266.64344322103426 229.94117542721557 264.9375 229.96204866271972 264.25 C 229.98292189822388 263.5625 229.8875 263.0179306110088 229.75 263.03984580224187 Z " class="odd" fill="#000000"></path><path d="M 239.75 267.0037380604375 C 238.7875 267.0016821271969 238 267.225 238 267.5 C 238 267.775 239.35 268.675 241 269.5 C 242.71650660769703 270.3582533038485 244.9159156133553 272.8182823057625 246.1408344262183 275.25 C 247.31829336063836 277.5875 248.50207086284573 282.2 248.77145109779025 285.5 C 249.16330732121867 290.30037274293795 248.83524237088247 292.3497359737523 247.13061667157194 295.75 C 245.95877750220737 298.0875 245 301.575 245 303.5 C 245 306.05555555555554 245.8095238095238 307.8095238095238 248 310 C 250 312 252 313 254 313 C 255.66666666666669 313 257.8888888888889 312.1111111111111 259 311 C 260.1 309.9 261 308.55 261 308 C 261 307.45 262.4625 307.0121778805571 264.25 307.02706195679355 L 267.5 307.0541239135871 L 263.4281117435997 303.27706195679355 C 260.9087053129907 300.94007391008165 258.5514390555551 297.4030244682105 257.2454147023842 294 C 256.0844698707359 290.975 254.4387953766 286.025 253.5883602709711 283 C 252.73792516534218 279.975 251.13263883388913 276.0375 250.02105731218654 274.25 C 248.90947579048395 272.4625 246.5375 270.1016821271969 244.75 269.0037380604375 C 242.9625 267.9057939936782 240.7125 267.0057939936782 239.75 267.0037380604375 Z " class="odd" fill="#000000"></path><path d="M 401 269.0219132774897 C 399.625 269.0539023685911 397.2625 269.73705832751557 395.75 270.5400376306552 C 394.2375 271.34301693379484 392.325 273.35 391.5 275 C 390.675 276.65 389.9910188925037 279.0125 389.98004198334155 280.25 C 389.9690650741794 281.4875 390.8690650741794 283.5125 391.98004198334155 284.75 C 393.0910188925037 285.9875 394.5625 286.8491504320154 395.25 286.66477873781196 C 396.02515986841274 286.45689868222246 396.56737490158866 284.2726340769212 396.67736206647976 280.91477873781196 C 396.83111179814074 276.22087324569736 397.29706922357013 275.06491234011884 400.17736206647976 272.2318756468345 L 403.5 268.96375129366896 L 401 269.0219132774897 Z " class="odd" fill="#000000"></path><path d="M 428.25 310.6229434225913 C 430.3125 310.8303245401661 433.35 311.675 435 312.5 C 437.3768115942029 313.68840579710144 437.94806763285027 314.57125603864733 437.75 316.75 L 437.5 319.5 L 422.75 319.75 C 414.6375 319.8875 408.0122616298571 319.6625 408.0272480663491 319.25 C 408.0422345028411 318.8375 411.75473450284113 316.6428245401661 416.2772480663491 314.3729434225913 C 422.60131095427533 311.1988521271028 425.36590036753137 310.3329517595714 428.25 310.6229434225913 Z " class="even" fill="#deceb1"></path><path d="M 397.75 321.9970908160783 C 398.1625 321.9954907649214 406.825 322.92748683523035 417 324.0681931945427 C 427.175 325.2088995538551 436.0625 326.33520868661986 436.75 326.5711023784644 C 437.6812488061164 326.89063069686534 437.55374832856296 327.6590168123114 436.25 329.58436997632094 C 435.07007996905844 331.32685563484955 432.70832009724495 332.6720579484197 429 333.7137977347387 C 425.60373175936223 334.6678760393361 421.39626824063777 335.0693924091411 418 334.763522835907 C 414.975 334.4910898613964 410.925 333.4695352065328 409 332.49340138065463 C 407.075 331.5172675547765 404.15 329.59315751408013 402.5 328.21760129021834 C 400.85 326.8420450663565 398.9375 324.8803572299321 398.25 323.858294987053 C 397.5625 322.83623274417386 397.3375 321.9986908672352 397.75 321.9970908160783 Z " class="even" fill="#deceb1"></path><path d="M 394.25 323.1023614806093 C 394.6625 323.04606266627417 396.0125 324.6561174360573 397.25 326.6802609690162 C 398.4875 328.7044045019752 401.3 331.8709912491678 403.5 333.71712040722207 C 405.7 335.56324956527635 409.8625 337.957132129219 412.75 339.03685943820585 C 415.6375 340.1165867471926 418.9 341 420 341 C 421.71020944117987 341 421.9149072006343 341.47090965808275 421.41272897424824 344.25 C 421.08972991008477 346.0375 419.96472991008477 349.4125 418.91272897424824 351.75 C 417.74122480413877 354.3530309521097 416.1280752099404 356.24339053406607 414.75 356.62806873699645 C 413.5125 356.9735065423445 409.35 357.24185966686446 405.5 357.2244090137075 C 400.96750861059076 357.20386487470137 396.5612432345359 356.470129008769 393 355.14289609031516 C 389.975 354.01551463560634 385.475 351.5794214517029 383 349.72935568164087 C 380.525 347.8792899115789 376.44804322484947 343.245839795457 373.9400960552211 339.4327998680368 C 371.4321488855927 335.6197599406166 368.8446488855927 331.2625 368.1900960552211 329.75 C 367.5355432248495 328.2375 367 326.6625 367 326.25 C 367 325.8375 371.3875 325.4058740376971 376.75 325.29083119488246 C 382.1125 325.17578835206774 388.075 324.65935101834197 390 324.1431926754917 C 391.925 323.62703433264153 393.8375 323.15866029494447 394.25 323.1023614806093 Z " class="even" fill="#deceb1"></path><path d="M 275.25 338.0316801529403 C 275.6625 338.0142560688231 276.27476112594945 339.4625 276.61058027988764 341.25 C 276.94639943382583 343.0375 276.73861994422856 346.075 276.1488480807826 348 C 275.55907621733667 349.925 274.2718150913872 352.264328470454 273.28826780089497 353.19850771212 C 272.0500078197995 354.3746146276769 271.0386531428423 354.60999772318763 270 353.9638204866371 C 269.175 353.45056327095546 267.4875 353.0237348005015 266.25 353.01531277451704 C 265.0125 353.00689074853267 263.325 353.675 262.5 354.5 C 261.675 355.325 260.55 356 260 356 C 259.45 356 257.875 354.65 256.5 353 C 255.125 351.35 254 349.1 254 348 C 254 346.6666666666667 254.66666666666666 346 256 346 C 257.1 346 260.5875 345.0780364007242 263.75 343.95119200160934 C 266.9125 342.82434760249447 270.625 341.0386036713176 272 339.9828721545496 C 273.375 338.92714063778163 274.8375 338.04910423705746 275.25 338.0316801529403 Z " class="even" fill="#deceb1"></path><path d="M 323.75 386 C 323.8875 386 324.225 386.45 324.5 387 C 324.775 387.55 324.6625 388.18202882373436 324.25 388.40450849718746 C 323.8375 388.6269881706406 323.5 388.1769881706406 323.5 387.40450849718746 C 323.5 386.63202882373434 323.6125 386 323.75 386 Z " class="even" fill="#deceb1"></path><path d="M 340 403 C 340.55 403 341 403.225 341 403.5 C 341 403.775 340.325 404.225 339.5 404.5 C 338.675 404.775 338.225 404.55 338.5 404 C 338.775 403.45 339.45 403 340 403 Z " class="even" fill="#deceb1"></path><path d="M 348 406 C 348.55 406 348.775 406.45 348.5 407 C 348.225 407.55 347.55 408 347 408 C 346.45 408 346.225 407.55 346.5 407 C 346.775 406.45 347.45 406 348 406 Z " class="even" fill="#deceb1"></path><path d="M 349 410 C 349.55 410 350.22978902819926 410.7875 350.51064228488724 411.75 L 351.0212845697745 413.5 L 350.51064228488724 413.75 C 350.22978902819926 413.8875 349.55 413.1 349 412 L 348 410 L 349 410 Z " class="even" fill="#deceb1"></path><path d="M 362.75 414.07028526261035 C 362.8875 414.03162836817467 362.775 414.45 362.5 415 C 362.225 415.55 361.2125 415.96837163182533 360.25 415.92971473738965 C 358.753561476688 415.8696132661946 358.78978454478624 415.7349047852168 360.5 415 C 361.6 414.5273137888714 362.6125 414.1089421570461 362.75 414.07028526261035 Z " class="even" fill="#deceb1"></path><path d="M 369.75 418.07894736842104 C 370.4375 418.03552631578947 371.45 418.9 372 420 C 372.77777777777777 421.55555555555554 372.6666666666667 422 371.5 422 C 370.675 422 369.775 422.675 369.5 423.5 C 369.225 424.325 368.4375 424.99310925146733 367.75 424.98468722548296 C 366.88503053968276 424.97409115963495 366.8389180501183 424.7430728358253 367.6002959998886 424.23468722548296 C 368.20545879982734 423.8306092514673 369.21795879982733 422.4875 369.8502959998886 421.25 C 370.73888508626 419.5110085342472 370.71610636986264 418.90437267195375 369.75 418.57894736842104 L 368.5 418.1578947368421 L 369.75 418.07894736842104 Z " class="even" fill="#deceb1"></path><path d="M 375 425 C 375.55 425 375.775 425.45 375.5 426 C 375.225 426.55 374.55 427 374 427 C 373.45 427 373.225 426.55 373.5 426 C 373.775 425.45 374.45 425 375 425 Z " class="even" fill="#deceb1"></path><path d="M 383.5496031746032 425 C 383.8824404761905 425.275 383.93046679197994 426.175 383.656328320802 427 C 383.3091628886429 428.04476938351837 383.12550503410995 427.8930258446912 383.05116959064327 426.5 C 382.9924707602339 425.4 383.2167658730159 424.725 383.5496031746032 425 Z " class="even" fill="#deceb1"></path><path d="M 409.17799944876737 444 C 411.39493512540855 446.475 415.0399714498797 451.65 417.27808016981436 455.5 C 419.516188889749 459.35 422.13633487038015 464.525 423.1006267934391 467 C 424.0649187164981 469.475 426.68339680233925 476.45 428.91946698419724 482.5 C 431.15553716605524 488.55 432.98841307809823 493.8375 432.992524566515 494.25 C 432.99663605493174 494.6625 428.95 491.625 424 487.5 L 415 480 L 414.385609376558 473.75 C 414.0476945336649 470.3125 411.83081617828435 461.2 409.4592130312679 453.5 L 405.14720730941974 439.5 L 409.17799944876737 444 Z " class="even" fill="#deceb1"></path></g></svg>